<svg width="44" height="44" viewBox="0 0 44 44" fill="none" xmlns="http://www.w3.org/2000/svg">
<path d="M26.9286 7.33333C26.9286 8.74782 26.3566 10.1044 25.3386 11.1046C24.3205 12.1048 22.9397 12.6667 21.5 12.6667C20.0603 12.6667 18.6795 12.1048 17.6614 11.1046C16.6434 10.1044 16.0714 8.74782 16.0714 7.33333C16.0714 5.91885 16.6434 4.56229 17.6614 3.5621C18.6795 2.5619 20.0603 2 21.5 2C22.9397 2 24.3205 2.5619 25.3386 3.5621C26.3566 4.56229 26.9286 5.91885 26.9286 7.33333ZM21.5 16.6667C18.9804 16.6667 16.5641 17.65 14.7825 19.4003C13.0009 21.1507 12 23.5246 12 26H31C31 23.5246 29.9991 21.1507 28.2175 19.4003C26.4359 17.65 24.0196 16.6667 21.5 16.6667Z" stroke="#4650FF" stroke-width="2" stroke-linecap="round" stroke-linejoin="round"/>
<path d="M17.7168 39.584H13.7129V33.9883H17.7168V39.584ZM14.4551 38.959H16.9551V34.6035H14.4551V38.959ZM20.0703 36.5762H21.5254V37.2402H20.0703V41.791H19.3086V33.1094H20.0703V36.5762ZM29.1523 41.8105H28.3809V33.1094H29.1523V41.8105ZM24.5332 33.7832C24.9629 33.7865 25.3454 33.9134 25.6807 34.1641C26.016 34.4115 26.278 34.763 26.4668 35.2188C26.6556 35.6745 26.75 36.2051 26.75 36.8105C26.75 37.416 26.6556 37.9466 26.4668 38.4023C26.278 38.8581 26.016 39.2096 25.6807 39.457C25.3454 39.7044 24.9629 39.8281 24.5332 39.8281C24.1035 39.8281 23.7194 39.7044 23.3809 39.457C23.0456 39.2096 22.7835 38.8581 22.5947 38.4023C22.4092 37.9466 22.3164 37.416 22.3164 36.8105C22.3164 36.2051 22.4092 35.6745 22.5947 35.2188C22.7835 34.763 23.0456 34.4115 23.3809 34.1641C23.7161 33.9134 24.1003 33.7865 24.5332 33.7832ZM24.5332 34.4668C24.2435 34.4701 23.9863 34.5693 23.7617 34.7646C23.5404 34.9567 23.3678 35.2301 23.2441 35.585C23.1204 35.9365 23.0586 36.3451 23.0586 36.8105C23.0586 37.276 23.1204 37.6862 23.2441 38.041C23.3678 38.3926 23.542 38.6644 23.7666 38.8564C23.9912 39.0485 24.2467 39.1445 24.5332 39.1445C24.8197 39.1445 25.0752 39.0485 25.2998 38.8564C25.5244 38.6644 25.6986 38.3926 25.8223 38.041C25.946 37.6862 26.0078 37.276 26.0078 36.8105C26.0078 36.3451 25.946 35.9365 25.8223 35.585C25.6986 35.2301 25.5244 34.9567 25.2998 34.7646C25.0785 34.5693 24.8229 34.4701 24.5332 34.4668Z" fill="#4650FF"/>
</svg>
