<svg width="44" height="44" viewBox="0 0 44 44" fill="none" xmlns="http://www.w3.org/2000/svg">
<path d="M28.6667 7.11111H31.3333C32.0406 7.11111 32.7189 7.38036 33.219 7.85962C33.719 8.33888 34 8.98889 34 9.66667V17.3333C34 18.0111 33.719 18.6611 33.219 19.1404C32.7189 19.6196 32.0406 19.8889 31.3333 19.8889H28.6667V25L23.3333 19.8889H18C17.6498 19.8892 17.3029 19.8233 16.9794 19.6948C16.6558 19.5663 16.362 19.3778 16.1147 19.1401M16.1147 19.1401L20.6667 14.7778H26C26.7072 14.7778 27.3855 14.5085 27.8856 14.0293C28.3857 13.55 28.6667 12.9 28.6667 12.2222V4.55556C28.6667 3.87778 28.3857 3.22776 27.8856 2.7485C27.3855 2.26925 26.7072 2 26 2H12.6667C11.9594 2 11.2811 2.26925 10.781 2.7485C10.281 3.22776 10 3.87778 10 4.55556V12.2222C10 12.9 10.281 13.55 10.781 14.0293C11.2811 14.5085 11.9594 14.7778 12.6667 14.7778H15.3333V19.8889L16.1147 19.1401Z" stroke="#AAA5A5" stroke-width="2" stroke-linecap="round" stroke-linejoin="round"/>
<path d="M5.54297 38.9199C6.06706 38.9134 6.55371 38.8906 7.00293 38.8516C7.4554 38.8092 7.92578 38.7376 8.41406 38.6367L8.52148 39.3008C7.98112 39.4147 7.46191 39.4928 6.96387 39.5352C6.46908 39.5742 5.92383 39.5938 5.32812 39.5938H4.78125V34.0566H5.54297V38.9199ZM11.7832 41.791H11.0508V33.1094H11.7832V41.791ZM9.92773 41.3516H9.19531V36.6738H7.21289V36.0391H9.19531V33.3242H9.92773V41.3516ZM20.0254 38.4316H14.0195V33.8613H19.9277V34.5059H14.8008V35.7949H19.7422V36.4102H14.8008V37.8066H20.0254V38.4316ZM20.9434 40.6582H12.9941V40.0234H20.9434V40.6582ZM28.8242 41.8008H28.043V39.6426H26.041V39.0566H28.043V33.1191H28.8242V41.8008ZM21.5977 37.6895C22.75 37.6895 23.7884 37.6732 24.7129 37.6406C25.6374 37.6048 26.5228 37.5267 27.3691 37.4062L27.418 37.9824C26.627 38.1159 25.7546 38.2103 24.8008 38.2656V41.5273H24.0293V38.3047C23.3945 38.3307 22.6198 38.3438 21.7051 38.3438L21.5977 37.6895ZM24.459 33.5488C24.8854 33.5488 25.263 33.6204 25.5918 33.7637C25.9238 33.9069 26.1826 34.1087 26.3682 34.3691C26.5537 34.6263 26.6465 34.9225 26.6465 35.2578C26.6465 35.5964 26.5537 35.8942 26.3682 36.1514C26.1859 36.4085 25.9287 36.6071 25.5967 36.7471C25.2646 36.887 24.8854 36.957 24.459 36.957C24.0293 36.957 23.6484 36.887 23.3164 36.7471C22.9844 36.6071 22.7256 36.4085 22.54 36.1514C22.3545 35.8942 22.2617 35.5964 22.2617 35.2578C22.2617 34.9225 22.3545 34.6263 22.54 34.3691C22.7256 34.1087 22.9844 33.9069 23.3164 33.7637C23.6484 33.6204 24.0293 33.5488 24.459 33.5488ZM24.459 34.1445C24.1693 34.1445 23.9121 34.1917 23.6875 34.2861C23.4629 34.3805 23.2887 34.5124 23.165 34.6816C23.0413 34.8509 22.9811 35.043 22.9844 35.2578C22.9811 35.4759 23.0413 35.6696 23.165 35.8389C23.2887 36.0049 23.4629 36.1335 23.6875 36.2246C23.9121 36.3158 24.1693 36.3613 24.459 36.3613C24.7389 36.3613 24.9896 36.3158 25.2109 36.2246C25.4355 36.1335 25.6097 36.0049 25.7334 35.8389C25.8604 35.6696 25.9238 35.4759 25.9238 35.2578C25.9238 35.043 25.8604 34.8509 25.7334 34.6816C25.6097 34.5124 25.4355 34.3805 25.2109 34.2861C24.9896 34.1917 24.7389 34.1445 24.459 34.1445ZM37.2031 35.0723C37.2031 35.6322 37.1966 36.1025 37.1836 36.4834C37.1738 36.8643 37.1429 37.2907 37.0908 37.7627C37.0387 38.2314 36.9557 38.7409 36.8418 39.291L36.0703 39.2227C36.2428 38.4707 36.3551 37.7269 36.4072 36.9912L31.1094 37.2793L31.002 36.6445L36.4365 36.4199C36.443 36.2376 36.4479 36.057 36.4512 35.8779C36.4544 35.6956 36.4577 35.515 36.4609 35.3359V35.0723V34.6426H31.2363V33.998H37.2031V35.0723ZM38.1895 40.5703H30.2793V39.9258H38.1895V40.5703Z" fill="#AAA5A5"/>
</svg>
