<svg width="44" height="44" viewBox="0 0 44 44" fill="none" xmlns="http://www.w3.org/2000/svg">
<path d="M16.5 4.66667H13.75C13.0207 4.66667 12.3212 4.94762 11.8055 5.44772C11.2897 5.94781 11 6.62609 11 7.33333V23.3333C11 24.0406 11.2897 24.7189 11.8055 25.219C12.3212 25.719 13.0207 26 13.75 26H27.5C28.2293 26 28.9288 25.719 29.4445 25.219C29.9603 24.7189 30.25 24.0406 30.25 23.3333V22M16.5 4.66667C16.5 5.37391 16.7897 6.05219 17.3055 6.55229C17.8212 7.05238 18.5207 7.33333 19.25 7.33333H22C22.7293 7.33333 23.4288 7.05238 23.9445 6.55229C24.4603 6.05219 24.75 5.37391 24.75 4.66667M16.5 4.66667C16.5 3.95942 16.7897 3.28115 17.3055 2.78105C17.8212 2.28095 18.5207 2 19.25 2H22C22.7293 2 23.4288 2.28095 23.9445 2.78105C24.4603 3.28115 24.75 3.95942 24.75 4.66667M24.75 4.66667H27.5C28.2293 4.66667 28.9288 4.94762 29.4445 5.44772C29.9603 5.94781 30.25 6.62609 30.25 7.33333V11.3333M33 16.6667H19.25M19.25 16.6667L23.375 12.6667M19.25 16.6667L23.375 20.6667" stroke="#AAA5A5" stroke-width="2" stroke-linecap="round" stroke-linejoin="round"/>
<path d="M20.5488 38.2852H19.7773V36.0098H18.0293V35.375H19.7773V33.1094H20.5488V38.2852ZM17.668 38.5586C18.2702 38.5586 18.7894 38.6221 19.2256 38.749C19.6618 38.876 19.9954 39.0599 20.2266 39.3008C20.4609 39.5417 20.5781 39.8314 20.5781 40.1699C20.5781 40.5085 20.4609 40.7982 20.2266 41.0391C19.9954 41.2832 19.6618 41.4688 19.2256 41.5957C18.7894 41.7227 18.2702 41.7878 17.668 41.791C17.0658 41.7878 16.5465 41.7227 16.1104 41.5957C15.6742 41.4688 15.3389 41.2832 15.1045 41.0391C14.8734 40.7982 14.7578 40.5085 14.7578 40.1699C14.7578 39.8314 14.8734 39.5417 15.1045 39.3008C15.3389 39.0599 15.6742 38.876 16.1104 38.749C16.5465 38.6221 17.0658 38.5586 17.668 38.5586ZM17.668 39.1543C17.2285 39.1543 16.846 39.195 16.5205 39.2764C16.195 39.3577 15.946 39.4749 15.7734 39.6279C15.6009 39.7809 15.5163 39.9616 15.5195 40.1699C15.5163 40.375 15.6009 40.554 15.7734 40.707C15.946 40.8568 16.195 40.9723 16.5205 41.0537C16.846 41.1351 17.2285 41.1758 17.668 41.1758C18.1074 41.1758 18.4883 41.1351 18.8105 41.0537C19.1361 40.9723 19.3851 40.8568 19.5576 40.707C19.7301 40.554 19.8164 40.375 19.8164 40.1699C19.8164 39.9616 19.7301 39.7809 19.5576 39.6279C19.3851 39.4749 19.1361 39.3577 18.8105 39.2764C18.4883 39.195 18.1074 39.1543 17.668 39.1543ZM16.3691 34.7012C16.3691 35.0755 16.4587 35.4385 16.6377 35.79C16.8167 36.1383 17.0674 36.4492 17.3896 36.7227C17.7152 36.9928 18.0879 37.2012 18.5078 37.3477L18.1074 37.9629C17.6224 37.7871 17.196 37.5267 16.8281 37.1816C16.4635 36.8366 16.1885 36.4378 16.0029 35.9854C15.8141 36.4932 15.526 36.9424 15.1387 37.333C14.7546 37.7204 14.3053 38.0117 13.791 38.207L13.3906 37.5918C13.8171 37.4355 14.1979 37.2109 14.5332 36.918C14.8685 36.6217 15.1289 36.2816 15.3145 35.8975C15.5033 35.5133 15.5977 35.1178 15.5977 34.7109V34.3887H13.6348V33.7441H18.3125V34.3887H16.3691V34.7012ZM29.9434 40.6777H21.9941V40.043H25.5684V38.168H22.9316V33.7246H23.7031V35.2969H28.2148V33.7246H28.9668V38.168H26.3203V40.043H29.9434V40.6777ZM28.2148 37.543V35.9219H23.7031V37.543H28.2148Z" fill="#AAA5A5"/>
</svg>
