<svg width="44" height="44" viewBox="0 0 44 44" fill="none" xmlns="http://www.w3.org/2000/svg">
<path d="M18 15.2857H26M22 11.4286V19.1429M10 20.4286V7.57143C10 6.88944 10.281 6.23539 10.781 5.75315C11.2811 5.27092 11.9594 5 12.6667 5H20.6667L23.3333 7.57143H31.3333C32.0406 7.57143 32.7189 7.84235 33.219 8.32458C33.719 8.80682 34 9.46087 34 10.1429V20.4286C34 21.1106 33.719 21.7646 33.219 22.2468C32.7189 22.7291 32.0406 23 31.3333 23H12.6667C11.9594 23 11.2811 22.7291 10.781 22.2468C10.281 21.7646 10 21.1106 10 20.4286Z" stroke="#4650FF" stroke-width="2" stroke-linecap="round" stroke-linejoin="round"/>
<path d="M8.30078 40.7168H0.351562V40.0625H3.91602V38.0605H1.07422V37.4453H2.43164V34.5938H1.05469V33.959H7.53906V34.5938H6.16211V37.4453H7.51953V38.0605H4.66797V40.0625H8.30078V40.7168ZM5.41016 37.4453V34.5938H3.19336V37.4453H5.41016ZM16.0254 38.4316H10.0195V33.8613H15.9277V34.5059H10.8008V35.7949H15.7422V36.4102H10.8008V37.8066H16.0254V38.4316ZM16.9434 40.6582H8.99414V40.0234H16.9434V40.6582ZM24.7949 33.9395H23.457V35.6387H24.7656V36.2246H21.9629V37.0742H25.5469V37.6895H17.6367V37.0742H21.2012V36.2246H18.4082V35.6387H19.7168V33.9395H18.3789V33.3438H24.7949V33.9395ZM24.5312 40.248H19.375V41.1074H24.7949V41.6934H18.6133V39.6914H23.7793V38.9492H18.5938V38.3828H24.5312V40.248ZM22.6953 35.6387V33.9395H20.4785V35.6387H22.6953ZM33.4473 41.8105H32.6855V33.1094H33.4473V41.8105ZM30.8105 37.0059H27.5684V39.0566C28.3464 39.0566 29.069 39.0339 29.7363 38.9883C30.4069 38.9427 31.11 38.8613 31.8457 38.7441L31.9238 39.3887C31.1719 39.5091 30.4525 39.5921 29.7656 39.6377C29.0788 39.68 28.3268 39.7012 27.5098 39.7012H26.7871V36.3809H30.0391V34.5547H26.7676V33.9199H30.8105V37.0059ZM38.877 33.6758C39.4889 33.679 40.0358 33.7751 40.5176 33.9639C40.9993 34.1527 41.3753 34.4196 41.6455 34.7646C41.9157 35.1064 42.0508 35.502 42.0508 35.9512C42.0508 36.3743 41.932 36.7503 41.6943 37.0791C41.46 37.4079 41.1312 37.6699 40.708 37.8652C40.2848 38.0605 39.7982 38.1761 39.248 38.2119V40.0332H42.8711V40.6777H34.9219V40.0332H38.4961V38.2119C37.9492 38.1761 37.4642 38.0605 37.041 37.8652C36.6178 37.6667 36.2891 37.4046 36.0547 37.0791C35.8203 36.7503 35.7031 36.3743 35.7031 35.9512C35.7031 35.502 35.8382 35.1064 36.1084 34.7646C36.3786 34.4196 36.7546 34.1527 37.2363 33.9639C37.7181 33.7751 38.265 33.679 38.877 33.6758ZM38.877 34.3105C38.4115 34.3105 37.9932 34.3805 37.6221 34.5205C37.2542 34.6572 36.9661 34.8509 36.7578 35.1016C36.5495 35.349 36.4453 35.6322 36.4453 35.9512C36.4453 36.2799 36.5495 36.5697 36.7578 36.8203C36.9661 37.071 37.2542 37.2646 37.6221 37.4014C37.9899 37.5381 38.4082 37.6081 38.877 37.6113C39.3457 37.6081 39.764 37.5381 40.1318 37.4014C40.4997 37.2646 40.7878 37.071 40.9961 36.8203C41.2044 36.5697 41.3086 36.2799 41.3086 35.9512C41.3086 35.6322 41.2044 35.349 40.9961 35.1016C40.7878 34.8509 40.498 34.6572 40.127 34.5205C39.7591 34.3805 39.3424 34.3105 38.877 34.3105Z" fill="#4650FF"/>
</svg>
