<svg width="44" height="44" viewBox="0 0 44 44" fill="none" xmlns="http://www.w3.org/2000/svg">
<path d="M10 13.5L12.6667 10.9444M12.6667 10.9444L22 2L31.3333 10.9444M12.6667 10.9444V23.7222C12.6667 24.0611 12.8071 24.3861 13.0572 24.6257C13.3072 24.8654 13.6464 25 14 25H18M31.3333 10.9444L34 13.5M31.3333 10.9444V23.7222C31.3333 24.0611 31.1929 24.3861 30.9428 24.6257C30.6928 24.8654 30.3536 25 30 25H26M18 25C18.3536 25 18.6928 24.8654 18.9428 24.6257C19.1929 24.3861 19.3333 24.0611 19.3333 23.7222V18.6111C19.3333 18.2722 19.4738 17.9472 19.7239 17.7076C19.9739 17.468 20.313 17.3333 20.6667 17.3333H23.3333C23.687 17.3333 24.0261 17.468 24.2761 17.7076C24.5262 17.9472 24.6667 18.2722 24.6667 18.6111V23.7222C24.6667 24.0611 24.8071 24.3861 25.0572 24.6257C25.3072 24.8654 25.6464 25 26 25M18 25H26" stroke="#AAA5A5" stroke-width="2" stroke-linecap="round" stroke-linejoin="round"/>
<path d="M25.2949 41.6738H19.3184V39.1934H25.2949V41.6738ZM20.0801 41.0781H24.543V39.7891H20.0801V41.0781ZM25.8027 34.4375H18.7617V33.8418H21.9258V32.9824H22.6875V33.8418H25.8027V34.4375ZM22.3066 34.7891C23.2148 34.7956 23.9098 34.903 24.3916 35.1113C24.8766 35.3164 25.1191 35.6191 25.1191 36.0195C25.1191 36.3971 24.9108 36.6885 24.4941 36.8936C24.0775 37.0986 23.4753 37.2158 22.6875 37.2451V37.9141H26.2617V38.5293H18.3516V37.9141H21.9258V37.2451C21.1348 37.2158 20.5293 37.0986 20.1094 36.8936C19.6927 36.6885 19.4844 36.3971 19.4844 36.0195C19.4844 35.6191 19.7269 35.3164 20.2119 35.1113C20.7002 34.903 21.3984 34.7956 22.3066 34.7891ZM22.3066 35.3262C21.6589 35.3327 21.1624 35.3945 20.8174 35.5117C20.4723 35.6289 20.3014 35.7982 20.3047 36.0195C20.2982 36.2409 20.4707 36.4118 20.8223 36.5322C21.1738 36.6527 21.6686 36.7129 22.3066 36.7129C22.9414 36.7129 23.4329 36.6527 23.7812 36.5322C24.1328 36.4118 24.3086 36.2409 24.3086 36.0195C24.3086 35.7982 24.1344 35.6289 23.7861 35.5117C23.4411 35.3945 22.9479 35.3327 22.3066 35.3262Z" fill="#AAA5A5"/>
</svg>
