<svg width="300" height="60" viewBox="0 0 300 60" fill="none" xmlns="http://www.w3.org/2000/svg">
<rect width="300" height="60" rx="30" fill="#FEE500" fill-opacity="0.988235"/>
<path d="M90 22.0781C94.9719 22.0781 99 25.2563 99 29.175C99 33.0938 94.9719 36.2719 90 36.2719C89.4531 36.2719 88.9188 36.2344 88.4 36.1594C87.8812 36.525 84.8812 38.6313 84.5969 38.6719C84.5969 38.6719 84.4812 38.7156 84.3812 38.6594C84.2812 38.6031 84.3 38.45 84.3 38.45C84.3312 38.2438 85.0813 35.6625 85.2188 35.1844C82.6844 33.9312 81 31.7063 81 29.1719C81 25.2531 85.0281 22.0781 90 22.0781ZM83.6937 27.0531C83.4125 27.0531 83.1844 27.2812 83.1844 27.5625C83.1844 27.8438 83.4125 28.0719 83.6937 28.0719H84.5031V31.1562C84.5031 31.4312 84.7375 31.6531 85.0219 31.6531C85.3063 31.6531 85.5406 31.4312 85.5406 31.1562V28.0719H86.35C86.6312 28.0719 86.8594 27.8438 86.8594 27.5625C86.8594 27.2812 86.6312 27.0531 86.35 27.0531H83.6906H83.6937ZM88.0938 27.0531C87.7562 27.0594 87.4906 27.3156 87.4031 27.5656L86.1625 30.8344C86.0062 31.325 86.1438 31.5062 86.2844 31.5719C86.3844 31.6187 86.5 31.6438 86.6156 31.6438C86.8312 31.6438 86.9969 31.5562 87.0469 31.4156L87.3031 30.7406H88.8875L89.1438 31.4125C89.1938 31.5531 89.3594 31.6406 89.575 31.6406C89.6906 31.6406 89.8031 31.6156 89.9062 31.5688C90.05 31.5031 90.1875 31.3219 90.0281 30.8313L88.7875 27.5656C88.7 27.3156 88.4344 27.0594 88.0938 27.0531ZM93.7469 27.0531C93.4594 27.0531 93.2281 27.2875 93.2281 27.5719V31.125C93.2281 31.4125 93.4625 31.6438 93.7469 31.6438C94.0312 31.6438 94.2656 31.4094 94.2656 31.125V29.9938L94.4469 29.8125L95.6625 31.425C95.7625 31.5563 95.9125 31.6313 96.0781 31.6313C96.1906 31.6313 96.3 31.5969 96.3906 31.5281C96.5 31.4437 96.5719 31.3219 96.5906 31.1844C96.6094 31.0469 96.575 30.9094 96.4906 30.8L95.2125 29.1062L96.3969 27.925C96.4781 27.8438 96.5188 27.7312 96.5125 27.6094C96.5062 27.4875 96.45 27.3719 96.3594 27.2812C96.2625 27.1844 96.1313 27.1281 96.0031 27.1281C95.8906 27.1281 95.7906 27.1688 95.7156 27.2438L94.2688 28.6937V27.5781C94.2688 27.2906 94.0344 27.0594 93.75 27.0594L93.7469 27.0531ZM90.8938 27.0531C90.6031 27.0531 90.3656 27.2875 90.3656 27.5719V31.0969C90.3656 31.3594 90.5875 31.5719 90.8625 31.575H92.5281C92.8031 31.575 93.025 31.3594 93.025 31.0969C93.025 30.8344 92.8 30.6219 92.5281 30.6219H91.425V27.5719C91.425 27.2844 91.1875 27.0531 90.8938 27.0531ZM88.6125 29.8219H87.575L88.0938 28.35L88.6125 29.8219Z" fill="black"/>
<path d="M112.844 25.5781C112.839 27.1875 112.661 28.6198 112.312 29.875C111.969 31.1302 111.331 32.2995 110.398 33.3828C109.466 34.4661 108.151 35.4323 106.453 36.2812L105.359 34.7812C106.526 34.2031 107.479 33.5807 108.219 32.9141C108.964 32.2422 109.542 31.5052 109.953 30.7031L105.75 31.0938L105.5 29.3906L110.555 29.0859C110.706 28.4714 110.805 27.8333 110.852 27.1719H106.25V25.5781H112.844ZM116.641 29.6719H118.656V31.3125H116.641V38.4062H114.641V24.2188H116.641V29.6719ZM126.672 25.5781C126.667 27.1875 126.49 28.6198 126.141 29.875C125.797 31.1302 125.159 32.2995 124.227 33.3828C123.294 34.4661 121.979 35.4323 120.281 36.2812L119.188 34.7812C120.354 34.2031 121.307 33.5807 122.047 32.9141C122.792 32.2422 123.37 31.5052 123.781 30.7031L119.578 31.0938L119.328 29.3906L124.383 29.0859C124.534 28.4714 124.633 27.8333 124.68 27.1719H120.078V25.5781H126.672ZM130.469 29.6719H132.484V31.3125H130.469V38.4062H128.469V24.2188H130.469V29.6719ZM139.562 24.9531C140.578 24.9531 141.492 25.1146 142.305 25.4375C143.117 25.7604 143.755 26.2188 144.219 26.8125C144.682 27.401 144.917 28.0781 144.922 28.8438C144.917 29.5417 144.729 30.1667 144.359 30.7188C143.99 31.2708 143.474 31.7188 142.812 32.0625C142.156 32.401 141.401 32.6198 140.547 32.7188V35.1406H146.094V36.7812H133.078V35.1406H138.562V32.7109C137.714 32.6172 136.961 32.3984 136.305 32.0547C135.648 31.7109 135.135 31.2656 134.766 30.7188C134.401 30.1667 134.219 29.5417 134.219 28.8438C134.219 28.0781 134.448 27.401 134.906 26.8125C135.37 26.2188 136.008 25.7604 136.82 25.4375C137.633 25.1146 138.547 24.9531 139.562 24.9531ZM139.562 26.5469C138.901 26.5469 138.315 26.6406 137.805 26.8281C137.294 27.0104 136.896 27.276 136.609 27.625C136.328 27.974 136.188 28.3802 136.188 28.8438C136.188 29.3333 136.328 29.7552 136.609 30.1094C136.896 30.4583 137.292 30.7266 137.797 30.9141C138.307 31.0964 138.896 31.1875 139.562 31.1875C140.234 31.1875 140.823 31.0964 141.328 30.9141C141.839 30.7318 142.234 30.4635 142.516 30.1094C142.802 29.7552 142.948 29.3333 142.953 28.8438C142.948 28.375 142.802 27.9688 142.516 27.625C142.234 27.276 141.839 27.0104 141.328 26.8281C140.818 26.6406 140.229 26.5469 139.562 26.5469ZM159.922 36.8594H146.906V35.2188H152.391V33.0781H148.406V28.2969H156.453V26.7344H148.391V25.1406H158.422V29.8594H150.406V31.4531H158.75V33.0781H154.375V35.2188H159.922V36.8594ZM169.953 27.4375C169.953 28.3281 170.089 29.1901 170.359 30.0234C170.63 30.8516 171.034 31.5885 171.57 32.2344C172.112 32.875 172.771 33.3594 173.547 33.6875L172.375 35.2812C171.583 34.9219 170.901 34.4089 170.328 33.7422C169.76 33.0703 169.31 32.2812 168.977 31.375C168.643 32.3646 168.18 33.224 167.586 33.9531C166.997 34.6823 166.281 35.2396 165.438 35.625L164.234 33.9688C165.036 33.6302 165.714 33.1276 166.266 32.4609C166.818 31.7891 167.232 31.0208 167.508 30.1562C167.789 29.2917 167.932 28.3854 167.938 27.4375V25.3125H169.953V27.4375ZM176.328 38.4688H174.312V24.2188H176.328V38.4688ZM186.328 26.6406H183.5C183.505 27.2188 183.625 27.776 183.859 28.3125C184.099 28.8438 184.466 29.3229 184.961 29.75C185.456 30.1771 186.073 30.5104 186.812 30.75L185.797 32.2969C185.026 32.0521 184.365 31.6901 183.812 31.2109C183.266 30.7266 182.833 30.1562 182.516 29.5C182.188 30.2188 181.737 30.8385 181.164 31.3594C180.591 31.8802 179.901 32.2708 179.094 32.5312L178.031 31C178.786 30.7552 179.419 30.4062 179.93 29.9531C180.445 29.5 180.831 28.9896 181.086 28.4219C181.341 27.849 181.474 27.2552 181.484 26.6406H178.578V25.0469H186.328V26.6406ZM189.531 27.6719H191.453V29.3281H189.531V32.7969H187.531V24.2188H189.531V27.6719ZM189.531 38.4375H187.531V34.9844H179.953V33.4062H189.531V38.4375ZM203.297 29.7812H205.391V31.4219H203.297V38.4375H201.328V24.2188H203.297V29.7812ZM200.359 27.9375H192V26.3438H195.219V24.4375H197.219V26.3438H200.359V27.9375ZM196.219 28.7344C196.906 28.7344 197.523 28.8802 198.07 29.1719C198.622 29.4583 199.055 29.8594 199.367 30.375C199.685 30.8906 199.844 31.474 199.844 32.125C199.844 32.776 199.685 33.3594 199.367 33.875C199.055 34.3906 198.622 34.7943 198.07 35.0859C197.523 35.3724 196.906 35.5156 196.219 35.5156C195.526 35.5156 194.904 35.3724 194.352 35.0859C193.799 34.7943 193.365 34.3906 193.047 33.875C192.734 33.3594 192.578 32.776 192.578 32.125C192.578 31.474 192.734 30.8906 193.047 30.375C193.365 29.8594 193.799 29.4583 194.352 29.1719C194.904 28.8802 195.526 28.7344 196.219 28.7344ZM196.219 30.3438C195.885 30.349 195.586 30.4245 195.32 30.5703C195.06 30.7161 194.854 30.9219 194.703 31.1875C194.557 31.4531 194.484 31.7656 194.484 32.125C194.484 32.4896 194.557 32.8047 194.703 33.0703C194.854 33.3359 195.06 33.5391 195.32 33.6797C195.586 33.8151 195.885 33.8802 196.219 33.875C196.552 33.8802 196.849 33.8151 197.109 33.6797C197.37 33.5391 197.573 33.3359 197.719 33.0703C197.865 32.8047 197.938 32.4896 197.938 32.125C197.938 31.7656 197.865 31.4531 197.719 31.1875C197.573 30.9219 197.37 30.7161 197.109 30.5703C196.849 30.4245 196.552 30.349 196.219 30.3438ZM217.859 38.4375H215.844V24.2188H217.859V38.4375ZM213.594 25.7031C213.594 27.224 213.388 28.6068 212.977 29.8516C212.57 31.0964 211.883 32.2396 210.914 33.2812C209.945 34.3177 208.641 35.224 207 36L205.953 34.4062C207.167 33.8333 208.167 33.1953 208.953 32.4922C209.745 31.7891 210.349 31.0104 210.766 30.1562C211.188 29.2969 211.453 28.3333 211.562 27.2656H206.719V25.7031H213.594Z" fill="#191919"/>
</svg>
