<svg width="21" height="21" viewBox="0 0 21 21" fill="none" xmlns="http://www.w3.org/2000/svg">
<path d="M13.875 15.5H19.5L17.9194 14.095C17.7071 13.9063 17.5387 13.6822 17.4239 13.4357C17.309 13.1891 17.25 12.9249 17.25 12.658V9.5C17.2502 8.25894 16.8175 7.04834 16.0116 6.03489C15.2057 5.02144 14.0662 4.25496 12.75 3.841V3.5C12.75 2.96957 12.5129 2.46086 12.091 2.08579C11.669 1.71071 11.0967 1.5 10.5 1.5C9.90326 1.5 9.33097 1.71071 8.90901 2.08579C8.48705 2.46086 8.25 2.96957 8.25 3.5V3.841C5.62875 4.665 3.75 6.888 3.75 9.5V12.659C3.75 13.197 3.50925 13.714 3.08063 14.095L1.5 15.5H7.125M13.875 15.5V16.5C13.875 17.2956 13.5194 18.0587 12.8865 18.6213C12.2536 19.1839 11.3951 19.5 10.5 19.5C9.60489 19.5 8.74645 19.1839 8.11351 18.6213C7.48058 18.0587 7.125 17.2956 7.125 16.5V15.5M13.875 15.5H7.125" stroke="black" stroke-width="2" stroke-linecap="round" stroke-linejoin="round"/>
</svg>
